<svg width="22" height="18" viewBox="0 0 22 18" fill="none" xmlns="http://www.w3.org/2000/svg">
<path d="M11.0047 3.7875C13.6391 3.7875 15.7812 5.91094 15.7812 8.52656C15.7812 9.14062 15.6594 9.72187 15.4391 10.2609L18.2281 13.0266C19.6719 11.8312 20.8062 10.2891 21.5047 8.52656C19.85 4.36875 15.7719 1.42031 10.9953 1.42031C9.65937 1.42031 8.37969 1.65938 7.19375 2.08125L9.25625 4.12969C9.8 3.91406 10.3859 3.7875 11.0047 3.7875ZM1.45625 1.20469L3.63594 3.36563L4.07656 3.80156C2.4875 5.02031 1.24531 6.65156 0.5 8.52656C2.15 12.6844 6.22813 15.6328 11.0047 15.6328C12.4859 15.6328 13.8969 15.3469 15.1859 14.8359L15.5891 15.2344L18.3875 18L19.6016 16.7953L2.66562 0L1.45625 1.20469ZM6.73438 6.44062L8.21563 7.90781C8.16875 8.10469 8.14062 8.31563 8.14062 8.52188C8.14062 10.0922 9.42031 11.3625 11.0047 11.3625C11.2156 11.3625 11.4266 11.3344 11.6234 11.2875L13.1047 12.7547C12.4672 13.0688 11.7594 13.2562 11.0047 13.2562C8.37031 13.2562 6.22812 11.1328 6.22812 8.51719C6.22812 7.77656 6.42031 7.07812 6.73438 6.44062ZM10.85 5.70469L13.8594 8.69062L13.8781 8.54062C13.8781 6.97031 12.5984 5.7 11.0141 5.7L10.85 5.70469Z" fill="#129AD2"/>
</svg>
